HIERARCHY
ROOT root
{
	OFFSET	0	13.1	24.9
	CHANNELS 6  Xposition Yposition Zposition Xrotation Yrotation Zrotation
	JOINT spine_1
	{
		OFFSET	0	9.99999	0
		CHANNELS 3  Xrotation Yrotation Zrotation
		JOINT spine_2
		{
			OFFSET	0	112	-10
			CHANNELS 3  Xrotation Yrotation Zrotation
			JOINT spine_3
			{
				OFFSET	0	206.5	19.3
				CHANNELS 3  Xrotation Yrotation Zrotation
				JOINT spine_4
				{
					OFFSET	0	110.4	14.6
					CHANNELS 3  Xrotation Yrotation Zrotation
					JOINT neck_1
					{
						OFFSET	0	71.8	-50.3
						CHANNELS 3  Xrotation Yrotation Zrotation
						JOINT neck_2
						{
							OFFSET	0	86.2	-25.8
							CHANNELS 3  Xrotation Yrotation Zrotation
							JOINT head_ee
							{
								OFFSET	0	179.8	-8.7
								CHANNELS 3  Xrotation Yrotation Zrotation
								End Site
								{
									OFFSET	1	0	0
								}
							}
						}
					}
					JOINT left_clavicle
					{
						OFFSET	-43.2	22.4	-70.8
						CHANNELS 3  Xrotation Yrotation Zrotation
						JOINT left_shoulder
						{
							OFFSET	-93.9	-5.79999	48.7
							CHANNELS 3  Xrotation Yrotation Zrotation
							JOINT left_elbow
							{
								OFFSET	-291.4	-30.8	15.2
								CHANNELS 3  Xrotation Yrotation Zrotation
								JOINT left_lowarm_twist
								{
									OFFSET	-110.7	-3.89999	13.6
									CHANNELS 3  Xrotation Yrotation Zrotation
									JOINT left_hand
									{
										OFFSET	-110.7	-3.89999	13.6
										CHANNELS 3  Xrotation Yrotation Zrotation
										JOINT left_ee
										{
											OFFSET	-80.8	-5.10001	12.1
											CHANNELS 3  Xrotation Yrotation Zrotation
											End Site
											{
												OFFSET	1	0	0
											}
										}
									}
								}
							}
						}
					}
					JOINT right_clavicle
					{
						OFFSET	43.2	22.4	-70.8
						CHANNELS 3  Xrotation Yrotation Zrotation
						JOINT right_shoulder
						{
							OFFSET	93.9	-5.79999	48.7
							CHANNELS 3  Xrotation Yrotation Zrotation
							JOINT right_elbow
							{
								OFFSET	291.4	-30.8	15.2
								CHANNELS 3  Xrotation Yrotation Zrotation
								JOINT right_lowarm_twist
								{
									OFFSET	110.7	-3.89999	13.6
									CHANNELS 3  Xrotation Yrotation Zrotation
									JOINT right_hand
									{
										OFFSET	110.7	-3.89999	13.6
										CHANNELS 3  Xrotation Yrotation Zrotation
										JOINT right_ee
										{
											OFFSET	80.8	-5.10001	12.1
											CHANNELS 3  Xrotation Yrotation Zrotation
											End Site
											{
												OFFSET	1	0	0
											}
										}
									}
								}
							}
						}
					}
				}
			}
		}
	}
	JOINT left_hip
	{
		OFFSET	-82.8	-127.5	0.300001
		CHANNELS 3  Xrotation Yrotation Zrotation
		JOINT left_knee
		{
			OFFSET	-28.2	-396.7	2.2
			CHANNELS 3  Xrotation Yrotation Zrotation
			JOINT left_ankle
			{
				OFFSET	-11.7	-411.3	35.4
				CHANNELS 3  Xrotation Yrotation Zrotation
				JOINT left_toes
				{
					OFFSET	0	-60	-88.6
					CHANNELS 3  Xrotation Yrotation Zrotation
					JOINT left_foot_ee
					{
						OFFSET	-22.5	-16.5	-42.2
						CHANNELS 3  Xrotation Yrotation Zrotation
						End Site
						{
							OFFSET	1	0	0
						}
					}
				}
			}
		}
	}
	JOINT right_hip
	{
		OFFSET	82.8	-127.5	0.300001
		CHANNELS 3  Xrotation Yrotation Zrotation
		JOINT right_knee
		{
			OFFSET	28.2	-396.7	2.2
			CHANNELS 3  Xrotation Yrotation Zrotation
			JOINT right_ankle
			{
				OFFSET	11.7	-411.3	35.4
				CHANNELS 3  Xrotation Yrotation Zrotation
				JOINT right_toes
				{
					OFFSET	0	-60	-88.6
					CHANNELS 3  Xrotation Yrotation Zrotation
					JOINT right_foot_ee
					{
						OFFSET	22.5	-16.5	-42.2
						CHANNELS 3  Xrotation Yrotation Zrotation
						End Site
						{
							OFFSET	1	0	0
						}
					}
				}
			}
		}
	}
}
MOTION
Frames: 6
Frame Time: 0.02
3541.47 746.142 -1436.59 1.54242 63.3368 -8.18537 -0.739171 0.619339 3.83034 -0.731088 0.374536 3.86192 -0.699867 -0.493014 3.84861 -0.720512 0.120516 3.87814 -6.96347 15.5864 -3.04592 -6.90973 31.161 0.156955 -0.0 0.0 -0.0 -2.92206 11.9123 -3.51392 -4.55109 -23.4263 68.9884 1.0699 -27.9228 0.265998 -30.381 -1.99101 3.2878 -1.87412 21.4305 -2.39075 -0.0 0.0 -0.0 12.5681 21.5101 -25.1271 -9.8791 12.0318 -68.058 0.280381 7.90755 -0.0193789 85.1824 4.44838 8.87451 -0.372514 7.8514 5.85771 0.0 0.0 0.0 -13.1725 1.80062 10.3772 -1.00082 0.0399135 0.1484 25.1407 20.8949 -3.4528 -31.9539 0.0 0.0 -0.0 0.0 -0.0 4.24177 -10.3849 7.9465 -9.66177 -0.275636 -1.45541 30.3879 18.6399 4.3236 -14.5826 0.0 0.0 0.0 0.0 0.0 
3542.29 747.9 -1437.12 1.64799 63.1076 -8.47409 -0.832438 0.618363 3.86382 -0.824211 0.371436 3.89527 -0.792682 -0.509765 3.87962 -0.813665 0.10886 3.9114 -6.70287 15.9322 -1.96612 -6.64469 31.0099 1.23885 -0.0 0.0 -0.0 -3.14764 12.1916 -3.84241 -3.99016 -23.2887 69.0049 1.16558 -30.0009 0.312336 -30.2712 -1.98083 3.27808 -1.93473 21.3441 -2.78746 -0.0 0.0 -0.0 12.8276 22.1252 -25.6757 -11.1058 12.0589 -68.0634 0.240757 6.80135 -0.0143064 85.0912 4.43745 8.87033 -0.173937 7.69182 4.44329 0.0 0.0 0.0 -12.6529 1.8187 10.4865 -2.09269 0.0804905 0.311053 25.5163 20.6156 -3.49376 -31.5442 0.0 0.0 -0.0 0.0 -0.0 4.28102 -9.83519 8.03691 -9.57455 -0.274251 -1.44209 29.634 18.1382 4.22097 -13.9304 0.0 0.0 0.0 0.0 0.0 
3540.37 746.294 -1439.95 0.963539 63.2163 -8.30877 -0.839549 0.64 3.90879 -0.831135 0.390175 3.94152 -0.797824 -0.502184 3.92884 -0.819337 0.124103 3.95882 -6.40843 16.0788 -1.62772 -6.32285 31.0058 1.52328 -0.0 0.0 -0.0 -3.41832 12.4639 -4.24564 -3.50469 -23.0618 69.0812 1.24659 -31.695 0.35388 -30.1115 -1.96606 3.2639 -1.93881 21.1466 -2.90701 -0.0 0.0 -0.0 12.765 22.5967 -25.4884 -11.5596 11.6316 -68.4269 0.222843 6.29953 -0.0122629 84.8755 4.41162 8.86037 0.0242303 7.74472 3.12507 0.0 0.0 0.0 -11.9196 1.83042 10.6889 -2.69431 0.10152 0.400988 26.116 20.988 -3.5713 -30.9567 0.0 0.0 -0.0 0.0 -0.0 4.27631 -9.20046 8.16453 -9.54939 -0.273848 -1.43825 30.4318 17.3834 4.2866 -13.1214 0.0 0.0 0.0 0.0 0.0 
3537.39 744.824 -1440.07 0.799502 63.0458 -8.06332 -0.752131 0.605786 3.91306 -0.743684 0.355759 3.94361 -0.712993 -0.530456 3.92396 -0.734462 0.0954149 3.95845 -5.9869 15.9947 -1.8027 -5.84968 30.9241 1.20671 -0.0 0.0 -0.0 -3.84916 13.0458 -4.84967 -3.22495 -22.6213 69.3549 1.35373 -33.844 0.41188 -29.7221 -1.9302 3.22915 -1.90637 21.0046 -2.78496 -0.0 0.0 -0.0 12.7445 23.3559 -25.3697 -12.0346 11.5627 -68.7422 0.210875 5.9637 -0.0109845 84.2157 4.33286 8.82933 0.3659 8.11291 0.9736 0.0 0.0 0.0 -11.1033 1.88606 10.0392 -4.97437 0.17261 0.743665 28.0339 22.1173 -3.81718 -29.9413 0.0 0.0 -0.0 0.0 -0.0 3.90748 -7.54454 8.45463 -9.37387 -0.270989 -1.41147 29.3803 17.791 4.18058 -12.3829 0.0 0.0 0.0 0.0 0.0 
3538.53 745.394 -1442.86 -0.498507 62.7873 -7.55442 -0.823013 0.701194 4.01705 -0.814148 0.444374 4.05344 -0.775821 -0.472783 4.05023 -0.798665 0.172261 4.07405 -5.6049 16.365 -0.941985 -5.43994 30.9348 2.04046 -0.0 0.0 -0.0 -4.42169 13.3636 -5.73948 -2.5126 -22.1007 69.4317 1.5883 -38.1928 0.549918 -29.3278 -1.89412 3.19372 -2.01835 20.9622 -3.46458 -0.0 0.0 -0.0 12.6862 23.9098 -25.1802 -12.4524 11.6268 -69.1665 0.20304 5.74365 -0.0101855 83.8323 4.28726 8.81087 0.826414 8.10418 -2.13987 0.0 0.0 0.0 -9.723 2.59307 10.663 -6.55579 0.213877 0.982842 29.6633 23.0182 -4.02358 -28.5865 0.0 0.0 -0.0 0.0 -0.0 4.47634 -7.61795 8.31019 -8.25082 -0.250758 -1.24033 29.1305 15.7505 4.08998 -12.0625 0.0 0.0 0.0 0.0 0.0 
3539.7 745.767 -1444.11 -1.51033 63.4188 -6.83969 -0.905186 0.635334 4.06698 -0.896064 0.375476 4.09909 -0.862108 -0.556487 4.0785 -0.885302 0.0940548 4.11515 -5.04103 16.5076 -1.0322 -4.80703 31.1834 1.81284 -0.0 0.0 -0.0 -4.59606 13.7963 -5.93099 -1.61648 -21.3324 69.3849 1.83334 -42.2412 0.708237 -29.049 -1.86877 3.16852 -2.0916 21.1204 -3.81794 -0.0 0.0 -0.0 12.8924 24.4527 -25.6009 -12.3946 11.6638 -69.5757 0.2006 5.67508 -0.00994277 83.0611 4.1959 8.77282 1.4737 8.28655 -6.44521 0.0 0.0 0.0 -7.73208 3.58576 10.218 -9.77642 0.277424 1.47291 30.3858 22.9141 -4.10363 -27.0748 0.0 0.0 -0.0 0.0 -0.0 3.9014 -5.24462 8.18725 -6.98282 -0.223887 -1.04761 26.5201 15.886 3.789 -9.89212 0.0 0.0 0.0 0.0 0.0 
